/* XPM */
static char *Idle__1__copy1680960892[] = {
/* columns rows colors chars-per-pixel */
"50 49 211 2 ",
"   c None",
".  c #0B0B0B",
"X  c #100F0D",
"o  c #151515",
"O  c #1E1E1C",
"+  c #211E0B",
"@  c #352D0B",
"#  c #262625",
"$  c #2E2E2C",
"%  c #282826",
"&  c #343332",
"*  c #393836",
"=  c #3C3C39",
"-  c #6D1D08",
";  c #403500",
":  c #413912",
">  c #60541D",
",  c #7A6704",
"<  c #796415",
"1  c #7A7010",
"2  c #55513C",
"3  c #4F4B37",
"4  c #7F4721",
"5  c #7C6F39",
"6  c #484743",
"7  c #4B4A43",
"8  c #4D4C4A",
"9  c #464542",
"0  c #52514C",
"q  c #58574A",
"w  c #5C5A53",
"e  c #5D5D5B",
"r  c #565551",
"t  c #514F47",
"y  c #625F54",
"u  c #65645C",
"i  c #696659",
"p  c #74715D",
"a  c #6B6A65",
"s  c #706F69",
"d  c #726F63",
"f  c #74736D",
"g  c #7C7969",
"h  c #7C7A73",
"j  c #797975",
"k  c #9F0000",
"l  c #911312",
"z  c #A20000",
"x  c #A31213",
"c  c #A63700",
"v  c #AA3600",
"b  c #873F2F",
"n  c #A0342E",
"m  c #AA312F",
"M  c #D12700",
"N  c #D12800",
"B  c #C83400",
"V  c #866F00",
"C  c #8F7B02",
"Z  c #947A05",
"A  c #917E1D",
"S  c #A07B05",
"D  c #905834",
"F  c #887D34",
"G  c #917E32",
"H  c #857422",
"J  c #A67324",
"K  c #D34F00",
"L  c #D25A00",
"P  c #D17000",
"I  c #AE5C56",
"U  c #80764A",
"Y  c #A36B5E",
"T  c #817E75",
"R  c #817E6C",
"E  c #B16560",
"W  c #B17973",
"Q  c #C44045",
"!  c #998303",
"~  c #96861A",
"^  c #979013",
"/  c #A68900",
"(  c #A78908",
")  c #BC9500",
"_  c #BB9A0C",
"`  c #B89607",
"'  c #A58819",
"]  c #AC9B18",
"[  c #BA9E15",
"{  c #B7981A",
"}  c #A29600",
"|  c #ADA300",
" . c #B7A408",
".. c #B6A418",
"X. c #9A8C39",
"o. c #908C2E",
"O. c #A48E36",
"+. c #AA9738",
"@. c #A38D26",
"#. c #B9A325",
"$. c #B7AA32",
"%. c #D48200",
"&. c #C39D02",
"*. c #C29C0A",
"=. c #E59600",
"-. c #CEA500",
";. c #C7A907",
":. c #D3AD01",
">. c #C6B70B",
",. c #D7BB01",
"<. c #D9B503",
"1. c #C6A518",
"2. c #C8BC1A",
"3. c #D8B919",
"4. c #E0A900",
"5. c #F5AD00",
"6. c #EABB00",
"7. c #E4B800",
"8. c #D0BB20",
"9. c #C9BB35",
"0. c #CAAE2A",
"q. c #CFC004",
"w. c #D3C401",
"e. c #DBC506",
"r. c #DCD100",
"t. c #DAC81A",
"y. c #E5C600",
"u. c #F2C500",
"i. c #F4C900",
"p. c #FECD00",
"a. c #FDD300",
"s. c #F8DB00",
"d. c #E6D100",
"f. c #FDE500",
"g. c #FFED00",
"h. c #F3E300",
"j. c #FFFD00",
"k. c #FFF400",
"l. c #D1C338",
"z. c #8A8146",
"x. c #9B8C4A",
"c. c #928543",
"v. c #89825B",
"b. c #A4934A",
"n. c #AA9B5B",
"m. c #BDA953",
"M. c #9C946B",
"N. c #84827B",
"B. c #8D8A7D",
"V. c #88857A",
"C. c #9B9579",
"Z. c #908964",
"A. c #AB9E67",
"S. c #ACA86E",
"D. c #C8A743",
"F. c #C9BD7D",
"G. c #858481",
"H. c #888782",
"J. c #8C8A83",
"K. c #8E8C89",
"L. c #918F86",
"P. c #908F89",
"I. c #939186",
"U. c #94928C",
"Y. c #9A978A",
"T. c #9D9B93",
"R. c #989792",
"E. c #A09E93",
"W. c #A09F9A",
"Q. c #A7A18C",
"!. c #A4A195",
"~. c #A4A39C",
"^. c #AAA698",
"/. c #B5AA9A",
"(. c #B5B19E",
"). c #ADACA4",
"_. c #AEADAA",
"`. c #B1AEA2",
"'. c #B3B0A4",
"]. c #B3B2AA",
"[. c #BDBAAC",
"{. c #BDB9A4",
"}. c #BCBBB3",
"|. c #B9B7B0",
" X c #E19FA2",
".X c #C1BDAC",
"XX c #C5BAA6",
"oX c #C1BFB7",
"OX c #C9C28D",
"+X c #C5C3BB",
"@X c #C9C6BB",
"#X c #CBC9BE",
"$X c #C8C4B5",
"%X c #C3C0AB",
"&X c #CECCC4",
"*X c #CCCAC4",
"=X c #D1CFC8",
"-X c #D6D2C3",
";X c #D9D6C9",
":X c #D7D4CA",
">X c #DCDAD2",
",X c #E0DCCF",
"<X c #E0D6CF",
"1X c #E4E2DA",
"2X c #E9E6DE",
"3X c #EBE8DF",
"4X c #E3E0D4",
"5X c #EDEBE3",
"6X c #F1EFE8",
"7X c #F4F2ED",
"8X c #F8F7F2",
/* pixels */
"                                                                                                    ",
"                                                                                                    ",
"                                                                                                    ",
"                                                                                                    ",
"                                                                                                    ",
"                                        N.].]._.T.G.e                                               ",
"                                      U.:X@X.X>X=X+X}.G.                                            ",
"                                    0 .X(.U.-X.X+.[ [ [ (                                           ",
"                                    K.).H.Y.:Xb.7.%.L P :./                                         ",
"                                  |.5X5X=XU.#Xb.7.v z M &._ w                                       ",
"                                W.5XOXOX3X*XW.b.6.c k N &.[ C.w                                     ",
"                                *X1XD.D.;X5X~.o.6.c k M &.) @.g                                     ",
"                                v.S.C.C./.$X).< 6.c k N ) _ C.T                                     ",
"                              u Z d.y.,.>...' ` 6.c k N ) -.{ ^                                     ",
"                            U.*X{ s.k.g.j.k.s.p.6.c k N ) u.p.w.                                    ",
"                            `..X1.p.g.f.k.j.k.a.6.v z M ) u.a.:.                                    ",
"                            g 3 { p.a.h.g.j.j.f.u.P B L -.p.p.-.                                    ",
"                          i w . ( u.&.G J $. .q.;._ *._ *.*.~ Z                                     ",
"                          u u . ( u._ b Q  XE Q.[..X.X.X/.I W <                                     ",
"                            B.0 { i.&.- x x m %X5X7X8X8X<Xx n <                                     ",
"                            !..X{ a.y.Z D l Y -X5X5X6X7X2XW D Z                                     ",
"                            i ^.{ a.g.f.r.F #X3X5X5X5X2X5X1Xb.)                                     ",
"                                ! 6.,.s.w.S.>X5X5X2X5X5X5X1XU V                                     ",
"                                V ' H } , i B.^.}.+X=X*X(.T                                         ",
"                            ! C A c.T.3 ; + $ * # 9 w t > ,                                         ",
"                            4.i.y.e.2.@.!  .] c.i Y.M.~ 1 ` /                                       ",
"                            1.3.9.D.t.;.x...g.i.<...,.r.v.A.`                                       ",
"                          a ~.^.@X2X(.p $X{.2.a.5.=.s.o.G.+XO.                                      ",
"                        ].).@XY.q `.'.B.$X+XZ.:.5.K  .p j :X].                                      ",
"                        h ~.U._.d L.I.0 Q.!.T.R &.:.X.f 9 R.K.                                      ",
"                        V.^.L.~.V.  o O & & y a U A t O H._._.h                                     ",
"                          V.J.[.Y.T $ o # & h G.T.u u = }.].>X_.                                    ",
"                            X.t.9..XP.O & R.].E.[.].L.f ).T.!.!.                                    ",
"                            / ,.d.#.Y.# * P.T.`.$XoXL.y !.T.~.R.                                    ",
"                              5 n.b.2 & f # O * 8 6 = s T.|.).U.                                    ",
"                                  f w P.P.O . . . o j `.}.+X:X[.                                    ",
"                                    ).}.i X     . @ 5 `.J.F }.I.                                    ",
"                                ! x.(.+.,         @  .9.A.] C.J.                                    ",
"                                | #.8.q.@           z.e.,.| 2                                       ",
"                                  e.3.M.s           h C.1.o.                                        ",
"                                w X.C.j               I.N.N.                                        ",
"                                H.K.U.d               T.].J.8                                       ",
"                          e e 8 r U..Xf               T.J.* & 8 8 r                                 ",
"                        *X4X&X).w f T.w               I.^.6 N.'.=X=XG.                              ",
"                      H.1X5X1X;X!.&X`.f               B.-X!.@X4X5X6X}.                              ",
"                        h h j f u h T u               h J.s h J.U.R.G.                              ",
"                                                                                                    ",
"                                                                                                    ",
"                                                                                                    "
};
