/* XPM */
static char *photofunny_net__final_3842711252052040465__cleanup1679697621[] = {
/* columns rows colors chars-per-pixel */
"100 100 27 1 ",
"  c #020204",
". c #060807",
"X c #05060A",
"o c #08070C",
"O c #07080C",
"+ c #090A0D",
"@ c #0D0D13",
"# c #0F0F19",
"$ c #100F15",
"% c #0F1015",
"& c #121116",
"* c #161817",
"= c #15151B",
"- c #18171D",
"; c #17181D",
": c #18191E",
"> c #161620",
", c #191722",
"< c #1D1D26",
"1 c #1F1F29",
"2 c #201F26",
"3 c #201E2A",
"4 c #1F2025",
"5 c #1D2029",
"6 c #212126",
"7 c #21212B",
"8 c #252530",
/* pixels */
"1111111<113533531113113353351131<731<572111171111111<155737111777<735371111111117111111711171<171111",
"1711117711533517311111533532111171<777<1111111731117733311131111111<1537111117111117111<31111<171311",
"<115<1311113311111111355355331337<13111137511155511135<7135511111<3<111113113<331111<753113317153335",
"<<77<7761115511111333533533533231775<77153311133311135115323117<1333311155113333117<1353113377115513",
"7<11135523222<2<22325<44222322336266<<<1711111113511117<3533111133336<<33132323232325223222311373553",
"2<111<%%$$$$&&&&$$$$%%%%$&$$$$$$$$&&@+#1111111117317113533551777&$$=&$&#&&$$$$$$$$$$&$&&=$$$$&,33311",
"<<718> .oXXXXXXXXXXXXXOOXXXXXXXXoo.   =3531111111111553371117777$o  XoXXXXXXXXXXooXXX XX.XooXX#15111",
"7<1<1>X&===$=========*==*=====&=&=o  -221111111111113353571<177772====&*=======&=&&=====*&=*@X&73711",
"11115>X====*=====;=*=======>===-*o  =7711317711<17111<<2<73177<2787=&;===:======-=*=========&.&71111",
"11115=X=====*=======;==;=-===-=&. X*<1<71511138<11111<6771<575<77777>===========-======;=;>==X%55111",
"131<7=X==-=======;===;==$--==-=. X=<77<1111<1151151111<:331171<3<787<====*=====;==*==;===>===X&13337",
"51757>X*-==-======;=======---=o  *63133111111111171137<#=<71157111777<===;=:==========;===>=*X%73553",
"333<7;X===*;;==;=*=*;===,==,=o .=177<171117777<1131111,@X=<2137171<1784====;;===-========;===.%55153",
"15517=X========*========-==&o  =11111<151181<7<11111<35# X=<7318171<7854;===;========;=*=;>==+%13253",
"333<7>X==;===;===;========&+ X=231117111877=&7111117<77$  X=22<3377557884===;======*===;=>===O%53337",
"55115=X===;=======;=;===&=@  =2311111771853X@17<1<18<72$.  X=3315<<7755854*=;==;===;=;======&O%5551<",
"37117=X======;==;==>=====+  =333<135313872-X&2251117111#X=o .&2213711111781===>*;;========>==X&13711",
"1<117*X=;=;===;==;;>====+ .=2313177117772==o$<31111713<&.=*o .=271111111177<;============>==*.%11<71",
"71115>X====;===*=;=#=:=O X&2732317711771-=&o&2<13317113&o=&&o o=31311<<1<787<======*====*>===X%17111",
"111<7=X=*===;=======;=+ X=67233131<1873==&&.&<111515171#X=--&o X*57<<11117777<>&*;=:=====>===X&71111",
"11117=X=========;==:=O .><7<<171117732,#==-X&<711153531#o&---&+ X&56113111<1777====;;========X%53235",
"311<7=X==*;=====;===+ O%3171<<13<587<==*===X$3731153331#X--&--&o X=571<377117871;===;=====>==.%55531",
"53517>X=====;=====&+ O&471<111117777=======X#2313115531#X&-=---&. X&<731111371784;==;==;=>===X%13111",
"51117=X==;========+ .=4415111177871==-===== &3311117531#o&&&-=--=+ X=67311157<7754==;==>*=>==.&13511",
"33527=X=;==>>==;=O O*17111115<1784;=;==;===X$2111111171&o*==*&--=*@  &22137<1711855;==>==>===X%<37<1",
"35117=X=*====;;=O .&<31111311778<;==;*===-=X$2131117111#X=-=---&==#+ o=233<71<175877=*======&X&15335",
"311<7>X===>==,*+ .=5771111117881=*&=;=====$X$2231111111&X==&--=&>===+ X=33731<1157871==**=>==X%77135",
"11115=X==>===*+ X&45<7517111771=**=>;===-==X$2331111111&.=-=-=--===,&X .=27<,11145761<>==>===X%51<73",
"11317=X=>==:=.  =<7<<131117772>&=;;====;===X#153151811<#X=========>=-&o X=23<77131<1775====>*X&11137",
"355<7=X*>=*=+ .=75111<1515871==;=======;===X$1371111132& =-=**=*=-==*:&o X=<7111171<1871*===*X%31153",
"35317=X====+ X&571<11111177<=====*=========X$2171111132$o==*-========-==+  =1111177517785;===X&517<3",
"533<7-X===@  =5611111111881===:&=;=========X$2111117132$X=-========--==-*o X=111111733776<===X&61115",
"11713-X*=. X=771111511176<=====;==;========X$211111311<&X*==-=*=====;=====+. *56557<111<787&=+%533<7",
"71113- -+ X=<111177111885;===*=>=;===*=;===X$233131717<&X===-=========;===%O O&57<<77117777<>X@75513",
"71317- @ X&671<1131<177<*==;========;=====$X$2331117111#X=====*===;==;====*=+ O&771711<11777<o@53735",
"17337-  X=<7<1115111781====;;=*;=;=;===;-==X$2231117<71&X===-*======*;==>=*;%O O=<7<<17171771=#<1<35",
"11113=  =<75,771317755;=*==;======;=====>==X&3111115131#X==*=========;=;>===;=+.X=<7<71<711777<17111",
"1117<@o=513711<71187<>=*=====-:====;=======X&3171117171#X=====-=;=;======>;%=;%O .&571<7111778711111",
"11<71&=271<751157777==========-===*;===;===X$2111117111#o=-==========;====;=====+ X&<3111115<7713317",
"<111133<135<173187<==;===;===============*= &2111117111# ===;*;=;=*========;;====+ X=5111317<711551<",
"11111111<<17715876==,==,=========*;========X+6631118<11# *:*===,============;=====@ X=33311311133711",
"11111111811,1788<:#========================o%65711<1111#.&*===&=================*==@  $2731111151<17",
"1111311111<<185<*==--==-=-==-=-===;;=-=*=&&o%5131111111#o==&==========&====&====*==&+ +=<17111115531",
"1111111111177<#XXXXXXXXXXXXXXXXXXXXOXXXX.XXX#1171111111= o. XXX@X+X+OOOOOOOXOOX+oo.     ><51171<337<",
"1117571181117:=#$#=#=$$=&&&&&&&&%#&&&&&&%&%%;73511111<1<*:;=;:;==>;==;===:;;>>====,==;>&=<11137133<7",
"111131111<<16<<132<12232223333336526233<66<1571<1111111177775777777777715565117773777711<11111315511",
"151111117771111<331133337<11531155331117<71171111111111171171175115157113357111181<17111111111173711",
"331117111111178333711111111117111353311157117<1111<17111111731777331318355757777<31<1117111111111<11",
"51111115<17731111111151111111111111111117111131<1111711111111111111111111111113177111111111111115537",
"371111113371<<1111113311111111111111111171117511111131535781117111375711771775711117375711171111331<",
"111117255313<115111111111111111111111111111111115311111131111111111131117711111111111111111111171171",
"11713533<1577713173558117771731171771173171111713351135178117777857181777777773187711111111111111111",
"111117531111111<111112331111<11111111<11<11111177711531111111111111111151111111111111111117111111735",
"51111135711115771713373371577375171137577111<<<<3537711<17357711711115553531117511711111111113131125",
"337111131111113111112<221113<1111111215<7<<<67751171111<<<1<11<<1<<1<<451<<11<<1<111<<17111111511113",
"3511115311773<>#&#&#&&$$####&&#&&&##&#&#&##&,<21111711<<#&#&####&#&#&&%#######&&#####=,1111111331153",
"11111111117117=o o.X.XXoooXXoXXXXXXXXooo Xo $3331111151# .  o .X...O....XOOOXXOX .XX+#<7<11111555135",
"11117111111<771<====-&&*&&&===**=*==&=&&===X=2111117171&.===*====*&==&=&&===&====*&&<187111111773<73",
"7<17311115311588<,==-=&--*==========-&*---=X$2311111<31&o=-=-============;======>*=<785171171<<73553",
"1111117<11711<177<====-=&===========---&==&X$2331111171# *==*&===================><77111711111<17313",
"5371<17611111111851>=>,=--**==;=;===-=-====X#<131517<11&o-->====;;=;;;;;;=;;====>18757771111777<<111",
"1711<<<711111111<881==*=--=================X#117131717<&X=======================,7711135111111<61711",
"17112=&51111111118781>===*==*==;==**=======o&3171111<72$X--*=>,*;=;;=;;=;====&><877357757117,=-<5111",
"17115#.,1711131171777,======;=====*======*=X$<771117133$ =-====*========>=>===<8715533337<17=@#<3<71",
"11517> X4;475771<151781===>===;;;=====;====O$2111311131&X=&---====;====;=:;&>1787771<771111>X &71111",
"71117> @ <5<571711111771===========;=;====&X&2113517111#X=-&*==*====*======><7777111571<<7=X+.%<117<",
"77517;X#.@;57<<711111177<*==;======;=======X$2171317151&X=-&*==-====;=====:7777111<171356=o@=.@511<7",
"11717>X*=.O,7<11111111717<======*====*=;===X&3135315171#X=*========;;=;;&:<777751771<<77*@@>=X&71713",
"11717=X==*+O;755711111<187<================X$<151118131& =-=;====*=;;====3771111<77<57<>++==%+=<1155",
"11517=X==:&++;54711117115771==>=;=*=====>== $2311115111#X=-==;==========58771771133262=++&>=*X@11133",
"71115=X=:%==++;4111117711787<>=============X$231111111<&X**=;==*===;==;<771117711115<=#+====;X@7111<",
"11117=X=;==;&+O;<171111<81575<>=;===;===>=&X&2211111171&X===;==;:==;==47711111171177=++=;&>>%X=11717",
"11117=X=======@O<,58771<<11138<======;=====X&653111113<#X=-======:=&=17776721171155=O+===>===O%43531",
"11117=X==>==:=%%X<7,57111111181<=*===&=;===X$3351111156&X*=========;777776<1711<55=O@=====>==O#<357<",
"11117>X==;==:===X@>7711811111185<==-;===-== $2131117131#.&====**==>477713<1111756*O+=;====>==.%5<133",
"11115=X*;;=====;=Xo,3171111111177<>=>;=====X&2111117<71&.*=====*%<55711317751177*X+======;===.&57355",
"11317=X===========+O>7511111111177<==-=====X&2311113171#.&----==;4777715177117<=X@==#=,===>==X%53531",
"11117=X;========#<=O+=5711111371777<===-===X$2111117151#o&&-===;5573177<171171=@@&;=>====>===X&5357<",
"113<7=X=====:=;=:%==X+;1171111713777,>=====X$2531117131#o*&-==-<777117711111<=@+====<=%:*>===.&13153",
"11517=X=;============+@,1111111<73387<=====X&6331117111#o**&*-<6871511171177*++&;&=>&=;&=>*==X&15323",
"111<5=X======*========@O:4566757<311771=&==.+67311111<<= ===>1851171117<555;OO========*;==>==.%51115",
"11117=X==;=;=;=;====;=%@O:55557515117771=>=X&2<7111111<&+&=>1771111111<<55=O%%===;=======>===O%51111",
"15117>X==========;===;==OO=51<7117117777,-=o$217171111<&.&><77711<<111774:OO=:=;===;=;====>==+%51753",
"33557;X====;===;;;=;===;*OO;77<7111111177<= #711171111<#X=1773371111<<57=OO===*=======;==;===.&5<733",
"533<7;X===========;=====*:@.:7<7111151<187<X$371<11715<#X,885133111155<=.+=;&=,===;====;=>>==.%55375",
"35517=X=;====-=====;;======+X=7<71<13173777=$237111711<==7853535111<55=+O=;=>========;===>==&O%533<1",
"33315;O*============;==;;%::X+<:111111773183,3335717115,185177111111<=%+==*=<&%,============*.%51553",
"551<5=O====;====*========;=&=@.:<7711<1<7137332333571171871171111<77=++====>==:=;==*=;=*=====X&7<733",
"7<717=o=======================%O,<575157111171113511711153311111115=++*=================*=--=X&71115",
"11717=X========#==============%@X;7<177,11111111531111111137511777=X@&====================#=&X&11111",
"11733=X===-&=>=>=>=>==-=;;==>===+@=<77117117117131111111111111117>+X==&,=================>>-=o=13751",
"111<8-X-=*-===========-&;=======;++:71<711111113315311113111171<*X@*===>===================-=X#15331",
"11113,X$=====*=*&====&-=====&&===@..&<711153113511117111155133<=.+&=%*;%==&%&====&==*===&&=&$X=31111",
"1<117,Xo.oXXX .oXXo XX.X X o+XXX+++ +>7<115311111111111117311<=@ .. .+XXX+OOOXXOOXXOXXXXoooXX $21111",
"7<3322$$$$$$$$$$$$$$$$=$$$#=&&%&#@&#&=<1113711171111111177111<*#=;=>,>#,;;;;==;;;;===;;==,,=-&237717",
"1<331722333333333233323373333111<<465577111111111171111171171<<7757857857757757777557777188773837777",
"11113531115337<17111115337<15337<11115337<111117<155371111171111711353353311111753373735372555517777",
"11113571111353171<11711<53171<531711<7357117111<71331<17111<1711573512533517111111571771371555517176",
"11115311135511113751<33711113751351153121111<75311115531<753<133535353356111711111177577351555537667",
"1111335153237111533<15537111533<53353353111113531117337<13537355325335311111<11111171737373555572677"
};
